[img]http://img9.imageshack.us/img9/7105/moneyballh.jpg[/img]
[code]
Moneyball 2011 R5 READNFO XviD AC3-26K

Imdb: 
http://www.imdb.com/title/tt1210166

Plot:
The story of Oakland A's general manager Billy Beane's successful attempt to put together a baseball 

club on a budget by employing computer-generated analysis to draft his players.

Sources:
R5 DVD9 PLAYON thnxs!

Notes:
Encoded the video added a few filters to make it look nice :)
Why readnfo well the audio is a cam it is a bit hollow but overall a very nice cam audio!
turned up the volume to 150% for you guyz take this or leave it simple!

Greetz:
To all the people who have helped me :P you know who you are

Anything to offer email us @: 26k@hushmail.me

Video
ID                                       : 0
Format                                   : MPEG-4 Visual
Format profile                           : Advanced Simple@L5
Format settings, BVOP                    : 2
Format settings, QPel                    : No
Format settings, GMC                     : No warppoints
Format settings, Matrix                  : Default (H.263)
Muxing mode                              : Packed bitstream
Codec ID                                 : XVID
Codec ID/Hint                            : XviD
Duration                                 : 2h 7mn
Bit rate                                 : 1 784 Kbps
Width                                    : 720 pixels
Height                                   : 388 pixels
Display aspect ratio                     : 1.856
Frame rate                               : 25.000 fps
Color space                              : YUV
Chroma subsampling                       : 4:2:0
Bit depth                                : 8 bits
Scan type                                : Progressive
Compression mode                         : Lossy
Bits/(Pixel*Frame)                       : 0.255
Stream size                              : 1.59 GiB (82%)
Writing library                          : XviD 1.2.1 (UTC 2008-12-04)

Audio
ID                                       : 1
Format                                   : AC-3
Format/Info                              : Audio Coding 3
Mode extension                           : CM (complete main)
Codec ID                                 : 2000
Duration                                 : 2h 7mn
Bit rate mode                            : Constant
Bit rate                                 : 384 Kbps
Channel(s)                               : 2 channels
Channel positions                        : Front: L R
Sampling rate                            : 48.0 KHz
Bit depth                                : 16 bits
Compression mode                         : Lossy
Stream size                              : 351 MiB (18%)
Alignment                                : Aligned on interleaves
Interleave, duration                     : 32 ms (0.80 video frame)
Interleave, preload duration             : 32 ms

[/code]
Screens:
[img]http://img189.imageshack.us/img189/6227/vlcsnap2011121319h16m43.png[/img]
[img]http://img835.imageshack.us/img835/4813/vlcsnap2011121319h16m48.png[/img]
[img]http://img403.imageshack.us/img403/6809/vlcsnap2011121319h16m53.png[/img]
[img]http://img819.imageshack.us/img819/4880/vlcsnap2011121319h16m57.png[/img]
[img]http://img818.imageshack.us/img818/6097/vlcsnap2011121319h17m07.png[/img]


[img]http://img851.imageshack.us/img851/5503/26ks.jpg[/img]#
Thank you smallz for bann
